<svg width="246" height="42" viewBox="0 0 246 42" fill="none" xmlns="http://www.w3.org/2000/svg">
<path d="M21 0L26.3941 13.5757L40.9722 14.5106L29.7278 23.8358L33.3435 37.9894L21 30.177L8.65651 37.9894L12.2722 23.8358L1.02781 14.5106L15.6059 13.5757L21 0Z" fill="#FCB000"/>
<path d="M72 0L77.3941 13.5757L91.9722 14.5106L80.7278 23.8358L84.3435 37.9894L72 30.177L59.6565 37.9894L63.2722 23.8358L52.0278 14.5106L66.6059 13.5757L72 0Z" fill="#FCB000"/>
<path d="M123 0L128.394 13.5757L142.972 14.5106L131.728 23.8358L135.343 37.9894L123 30.177L110.657 37.9894L114.272 23.8358L103.028 14.5106L117.606 13.5757L123 0Z" fill="#FCB000"/>
<path d="M174 0L179.394 13.5757L193.972 14.5106L182.728 23.8358L186.343 37.9894L174 30.177L161.657 37.9894L165.272 23.8358L154.028 14.5106L168.606 13.5757L174 0Z" fill="#FCB000"/>
<path d="M225 0L230.394 13.5757L244.972 14.5106L233.728 23.8358L237.343 37.9894L225 30.177L212.657 37.9894L216.272 23.8358L205.028 14.5106L219.606 13.5757L225 0Z" fill="#FCB000"/>
</svg>
