<svg width="59" height="47" viewBox="0 0 59 47" fill="none" xmlns="http://www.w3.org/2000/svg">
<path d="M51.2054 35.7178L41.5091 36.753C41.1028 36.8145 40.7157 36.9669 40.3766 37.1989C40.0375 37.4309 39.7552 37.7364 39.5507 38.0928L35.8901 45.4868C35.6828 45.8445 35.3977 46.151 35.0559 46.3836C34.7141 46.6161 34.3243 46.7688 33.9155 46.8303C33.5067 46.8918 33.0893 46.8606 32.6942 46.7389C32.2991 46.6172 31.9364 46.4081 31.633 46.1272L25.4486 40.6627C25.1479 40.3819 24.7877 40.1728 24.3949 40.0509C24.002 39.929 23.5867 39.8975 23.1799 39.9588L13.0499 41.4578C8.52035 42.1393 4.32519 39.0413 3.64376 34.5117L0.773718 15.434C0.0922889 10.9044 3.19027 6.70922 7.71987 6.0278L45.8753 0.287715C50.4076 -0.394124 54.6001 2.70427 55.2815 7.23386L58.1515 26.3116C58.833 30.8412 55.7377 35.0359 51.2054 35.7178Z" fill="#FCFCFC"/>
</svg>
