<svg width="20" height="16" viewBox="0 0 20 16" fill="none" xmlns="http://www.w3.org/2000/svg">
<path d="M18.9746 0.946859C19.0943 1.07021 19.1893 1.21673 19.2541 1.37803C19.3189 1.53932 19.3523 1.71223 19.3523 1.88686C19.3523 2.06148 19.3189 2.23439 19.2541 2.39569C19.1893 2.55699 19.0943 2.70351 18.9746 2.82686L13.9629 8.00019L18.9746 13.1735C19.2161 13.4228 19.3517 13.761 19.3517 14.1135C19.3517 14.4661 19.2161 14.8042 18.9746 15.0535C18.733 15.3028 18.4055 15.4429 18.0639 15.4429C17.7224 15.4429 17.3948 15.3028 17.1533 15.0535L11.2246 8.93353C11.1048 8.81017 11.0098 8.66366 10.945 8.50236C10.8802 8.34106 10.8468 8.16815 10.8468 7.99353C10.8468 7.8189 10.8802 7.64599 10.945 7.48469C11.0098 7.3234 11.1048 7.17688 11.2246 7.05353L17.1533 0.933525C17.6441 0.426859 18.4708 0.426859 18.9746 0.946859Z" fill="#696969" fill-opacity="0.8"/>
<path d="M8.97455 0.946859C9.0943 1.07021 9.1893 1.21673 9.25411 1.37803C9.31893 1.53932 9.35229 1.71223 9.35229 1.88686C9.35229 2.06148 9.31893 2.23439 9.25411 2.39569C9.1893 2.55699 9.0943 2.70351 8.97455 2.82686L3.96289 8.00019L8.97455 13.1735C9.21607 13.4228 9.35175 13.761 9.35175 14.1135C9.35175 14.4661 9.21607 14.8042 8.97455 15.0535C8.73304 15.3028 8.40548 15.4429 8.06393 15.4429C7.72238 15.4429 7.39482 15.3028 7.1533 15.0535L1.22455 8.93353C1.10481 8.81017 1.00981 8.66366 0.944996 8.50236C0.880178 8.34106 0.846815 8.16815 0.846815 7.99353C0.846815 7.8189 0.880178 7.64599 0.944996 7.48469C1.00981 7.3234 1.10481 7.17688 1.22455 7.05353L7.1533 0.933525C7.64414 0.426859 8.4708 0.426859 8.97455 0.946859Z" fill="#696969" fill-opacity="0.8"/>
</svg>
