<svg width="33" height="36" viewBox="0 0 33 36" fill="none" xmlns="http://www.w3.org/2000/svg">
<path d="M30.3113 11.3586L30.3056 11.3544L30.2999 11.3502L18.0499 2.16266L18.0499 2.1627L18.0409 2.15581C17.5938 1.81524 17.0983 1.646 16.4999 1.646C15.9016 1.646 15.406 1.81524 14.959 2.15581L14.959 2.15584L14.9499 2.16266L2.69991 11.3502L2.69346 11.355L2.68696 11.3598C2.37273 11.5902 2.12624 11.8807 1.94043 12.2514C1.75545 12.6205 1.66571 13.0018 1.66658 13.4137V13.4168V31.7918C1.66658 32.5134 1.9062 33.0945 2.42774 33.616C2.94923 34.1375 3.52909 34.376 4.2481 34.3752H4.24992H10.3749C10.5748 34.3752 10.6708 34.324 10.7661 34.2284C10.8642 34.1299 10.9159 34.0307 10.9166 33.8313V23.6252C10.9166 22.6681 11.2574 21.795 11.9458 21.109C12.6311 20.426 13.5008 20.0858 14.4547 20.0835H14.4583H18.5416C19.4987 20.0835 20.3718 20.4243 21.0578 21.1127C21.7407 21.7981 22.081 22.6677 22.0833 23.6216V23.6252V33.8335C22.0833 34.0334 22.1346 34.1312 22.2319 34.2285C22.3291 34.3257 22.425 34.3756 22.6214 34.3752H22.6249H28.7499C29.4722 34.3752 30.0525 34.1357 30.5721 33.616C31.0916 33.0965 31.3322 32.5153 31.3333 31.7908V13.4168C31.3333 13.0038 31.2428 12.6215 31.0574 12.2514C30.8711 11.8797 30.6246 11.589 30.3113 11.3586Z" stroke="#1B58A6" stroke-width="3"/>
</svg>
