<svg width="20" height="16" viewBox="0 0 20 16" fill="none" xmlns="http://www.w3.org/2000/svg">
<path d="M1.22454 0.946859C1.1048 1.07021 1.0098 1.21673 0.944983 1.37803C0.880166 1.53932 0.846802 1.71223 0.846802 1.88686C0.846802 2.06148 0.880166 2.23439 0.944983 2.39569C1.0098 2.55699 1.1048 2.70351 1.22454 2.82686L6.23621 8.00019L1.22454 13.1735C0.983029 13.4228 0.847349 13.761 0.847349 14.1135C0.847349 14.4661 0.983029 14.8042 1.22454 15.0535C1.46605 15.3028 1.79362 15.4429 2.13517 15.4429C2.47672 15.4429 2.80428 15.3028 3.04579 15.0535L8.97454 8.93353C9.09428 8.81017 9.18928 8.66366 9.2541 8.50236C9.31892 8.34106 9.35228 8.16815 9.35228 7.99353C9.35228 7.8189 9.31892 7.64599 9.2541 7.48469C9.18928 7.3234 9.09428 7.17688 8.97454 7.05353L3.04579 0.933525C2.55496 0.426859 1.72829 0.426859 1.22454 0.946859Z" fill="#696969" fill-opacity="0.8"/>
<path d="M11.2245 0.946859C11.1048 1.07021 11.0098 1.21673 10.945 1.37803C10.8802 1.53932 10.8468 1.71223 10.8468 1.88686C10.8468 2.06148 10.8802 2.23439 10.945 2.39569C11.0098 2.55699 11.1048 2.70351 11.2245 2.82686L16.2362 8.00019L11.2245 13.1735C10.983 13.4228 10.8473 13.761 10.8473 14.1135C10.8473 14.4661 10.983 14.8042 11.2245 15.0535C11.4661 15.3028 11.7936 15.4429 12.1352 15.4429C12.4767 15.4429 12.8043 15.3028 13.0458 15.0535L18.9745 8.93353C19.0943 8.81017 19.1893 8.66366 19.2541 8.50236C19.3189 8.34106 19.3523 8.16815 19.3523 7.99353C19.3523 7.8189 19.3189 7.64599 19.2541 7.48469C19.1893 7.3234 19.0943 7.17688 18.9745 7.05353L13.0458 0.933525C12.555 0.426859 11.7283 0.426859 11.2245 0.946859Z" fill="#696969" fill-opacity="0.8"/>
</svg>
