<svg width="9" height="16" viewBox="0 0 9 16" fill="none" xmlns="http://www.w3.org/2000/svg">
<path d="M0.637528 0.946859C0.521648 1.07021 0.429714 1.21673 0.366987 1.37803C0.30426 1.53932 0.271973 1.71223 0.271973 1.88686C0.271973 2.06148 0.30426 2.23439 0.366987 2.39569C0.429714 2.55699 0.521648 2.70351 0.637528 2.82686L5.48753 8.00019L0.637528 13.1735C0.403806 13.4228 0.272502 13.761 0.272502 14.1135C0.272502 14.4661 0.403806 14.8042 0.637528 15.0535C0.87125 15.3028 1.18824 15.4429 1.51878 15.4429C1.84931 15.4429 2.16631 15.3028 2.40003 15.0535L8.13753 8.93353C8.25341 8.81017 8.34534 8.66366 8.40807 8.50236C8.4708 8.34106 8.50308 8.16815 8.50308 7.99353C8.50308 7.8189 8.4708 7.64599 8.40807 7.48469C8.34534 7.3234 8.25341 7.17688 8.13753 7.05353L2.40003 0.933525C1.92503 0.426859 1.12503 0.426859 0.637528 0.946859Z" fill="#2A2A2A"/>
</svg>
