<svg width="10" height="16" viewBox="0 0 10 16" fill="none" xmlns="http://www.w3.org/2000/svg">
<path d="M8.97455 0.946859C9.0943 1.07021 9.1893 1.21673 9.25411 1.37803C9.31893 1.53932 9.35229 1.71223 9.35229 1.88686C9.35229 2.06148 9.31893 2.23439 9.25411 2.39569C9.1893 2.55699 9.0943 2.70351 8.97455 2.82686L3.96289 8.00019L8.97455 13.1735C9.21607 13.4228 9.35175 13.761 9.35175 14.1135C9.35175 14.4661 9.21607 14.8042 8.97455 15.0535C8.73304 15.3028 8.40548 15.4429 8.06393 15.4429C7.72238 15.4429 7.39482 15.3028 7.1533 15.0535L1.22456 8.93353C1.10481 8.81017 1.00981 8.66366 0.944996 8.50236C0.880178 8.34106 0.846815 8.16815 0.846815 7.99353C0.846815 7.8189 0.880178 7.64599 0.944996 7.48469C1.00981 7.3234 1.10481 7.17688 1.22456 7.05353L7.1533 0.933525C7.64414 0.426859 8.4708 0.426859 8.97455 0.946859Z" fill="#2B2B2B" fill-opacity="0.8"/>
</svg>
